<mxfile host="app.diagrams.net" agent="Mozilla/5.0 (Windows NT 10.0; Win64; x64) AppleWebKit/537.36 (KHTML, like Gecko) Chrome/134.0.0.0 Safari/537.36" version="26.2.3">
  <diagram name="Página-1" id="bDvTemzpQ7XN2jKiAscR">
    <mxGraphModel dx="1044" dy="568" grid="1" gridSize="10" guides="1" tooltips="1" connect="1" arrows="1" fold="1" page="1" pageScale="1" pageWidth="827" pageHeight="1169" math="0" shadow="0">
      <root>
        <mxCell id="0" />
        <mxCell id="1" parent="0" />
        <mxCell id="GWgP33HQFfG0AuJ8wDhh-1" value="Inicio" style="ellipse;whiteSpace=wrap;html=1;" vertex="1" parent="1">
          <mxGeometry x="340" y="20" width="120" height="80" as="geometry" />
        </mxCell>
        <mxCell id="GWgP33HQFfG0AuJ8wDhh-2" value="Fim" style="ellipse;whiteSpace=wrap;html=1;" vertex="1" parent="1">
          <mxGeometry x="354" y="860" width="120" height="80" as="geometry" />
        </mxCell>
        <mxCell id="GWgP33HQFfG0AuJ8wDhh-3" value="real n1, n2, media" style="rounded=0;whiteSpace=wrap;html=1;" vertex="1" parent="1">
          <mxGeometry x="340" y="130" width="120" height="60" as="geometry" />
        </mxCell>
        <mxCell id="GWgP33HQFfG0AuJ8wDhh-4" value="&quot;Informe o primeiro valor: &quot;" style="shape=document;whiteSpace=wrap;html=1;boundedLbl=1;" vertex="1" parent="1">
          <mxGeometry x="340" y="230" width="120" height="80" as="geometry" />
        </mxCell>
        <mxCell id="GWgP33HQFfG0AuJ8wDhh-5" value="n1" style="shape=parallelogram;perimeter=parallelogramPerimeter;whiteSpace=wrap;html=1;fixedSize=1;" vertex="1" parent="1">
          <mxGeometry x="354" y="340" width="120" height="60" as="geometry" />
        </mxCell>
        <mxCell id="GWgP33HQFfG0AuJ8wDhh-6" value="&quot;Informe o segundo valor: &quot;" style="shape=document;whiteSpace=wrap;html=1;boundedLbl=1;" vertex="1" parent="1">
          <mxGeometry x="354" y="430" width="120" height="80" as="geometry" />
        </mxCell>
        <mxCell id="GWgP33HQFfG0AuJ8wDhh-7" value="n2" style="shape=parallelogram;perimeter=parallelogramPerimeter;whiteSpace=wrap;html=1;fixedSize=1;" vertex="1" parent="1">
          <mxGeometry x="354" y="540" width="120" height="60" as="geometry" />
        </mxCell>
        <mxCell id="GWgP33HQFfG0AuJ8wDhh-8" value="media = (n1+n2)/2" style="rounded=0;whiteSpace=wrap;html=1;" vertex="1" parent="1">
          <mxGeometry x="354" y="640" width="120" height="60" as="geometry" />
        </mxCell>
        <mxCell id="GWgP33HQFfG0AuJ8wDhh-9" value="&quot;Média: &quot;,media" style="shape=document;whiteSpace=wrap;html=1;boundedLbl=1;" vertex="1" parent="1">
          <mxGeometry x="354" y="740" width="120" height="80" as="geometry" />
        </mxCell>
        <mxCell id="GWgP33HQFfG0AuJ8wDhh-10" value="" style="endArrow=classic;html=1;rounded=0;entryX=0.5;entryY=0;entryDx=0;entryDy=0;exitX=0.493;exitY=0.813;exitDx=0;exitDy=0;exitPerimeter=0;" edge="1" parent="1" source="GWgP33HQFfG0AuJ8wDhh-9" target="GWgP33HQFfG0AuJ8wDhh-2">
          <mxGeometry width="50" height="50" relative="1" as="geometry">
            <mxPoint x="412" y="811" as="sourcePoint" />
            <mxPoint x="440" y="720" as="targetPoint" />
          </mxGeometry>
        </mxCell>
        <mxCell id="GWgP33HQFfG0AuJ8wDhh-11" value="" style="endArrow=classic;html=1;rounded=0;exitX=0.5;exitY=1;exitDx=0;exitDy=0;entryX=0.5;entryY=0;entryDx=0;entryDy=0;" edge="1" parent="1" source="GWgP33HQFfG0AuJ8wDhh-8" target="GWgP33HQFfG0AuJ8wDhh-9">
          <mxGeometry width="50" height="50" relative="1" as="geometry">
            <mxPoint x="390" y="670" as="sourcePoint" />
            <mxPoint x="440" y="620" as="targetPoint" />
          </mxGeometry>
        </mxCell>
        <mxCell id="GWgP33HQFfG0AuJ8wDhh-12" value="" style="endArrow=classic;html=1;rounded=0;exitX=0.5;exitY=1;exitDx=0;exitDy=0;entryX=0.5;entryY=0;entryDx=0;entryDy=0;" edge="1" parent="1" source="GWgP33HQFfG0AuJ8wDhh-7" target="GWgP33HQFfG0AuJ8wDhh-8">
          <mxGeometry width="50" height="50" relative="1" as="geometry">
            <mxPoint x="390" y="670" as="sourcePoint" />
            <mxPoint x="440" y="620" as="targetPoint" />
          </mxGeometry>
        </mxCell>
        <mxCell id="GWgP33HQFfG0AuJ8wDhh-13" value="" style="endArrow=classic;html=1;rounded=0;exitX=0.487;exitY=0.878;exitDx=0;exitDy=0;exitPerimeter=0;entryX=0.5;entryY=0;entryDx=0;entryDy=0;" edge="1" parent="1" source="GWgP33HQFfG0AuJ8wDhh-6" target="GWgP33HQFfG0AuJ8wDhh-7">
          <mxGeometry width="50" height="50" relative="1" as="geometry">
            <mxPoint x="390" y="470" as="sourcePoint" />
            <mxPoint x="440" y="420" as="targetPoint" />
          </mxGeometry>
        </mxCell>
        <mxCell id="GWgP33HQFfG0AuJ8wDhh-14" value="" style="endArrow=classic;html=1;rounded=0;exitX=0.5;exitY=1;exitDx=0;exitDy=0;entryX=0.5;entryY=0;entryDx=0;entryDy=0;" edge="1" parent="1" source="GWgP33HQFfG0AuJ8wDhh-5" target="GWgP33HQFfG0AuJ8wDhh-6">
          <mxGeometry width="50" height="50" relative="1" as="geometry">
            <mxPoint x="390" y="370" as="sourcePoint" />
            <mxPoint x="440" y="320" as="targetPoint" />
          </mxGeometry>
        </mxCell>
        <mxCell id="GWgP33HQFfG0AuJ8wDhh-15" value="" style="endArrow=classic;html=1;rounded=0;exitX=0.523;exitY=0.838;exitDx=0;exitDy=0;exitPerimeter=0;entryX=0.413;entryY=-0.023;entryDx=0;entryDy=0;entryPerimeter=0;" edge="1" parent="1" source="GWgP33HQFfG0AuJ8wDhh-4" target="GWgP33HQFfG0AuJ8wDhh-5">
          <mxGeometry width="50" height="50" relative="1" as="geometry">
            <mxPoint x="390" y="270" as="sourcePoint" />
            <mxPoint x="440" y="220" as="targetPoint" />
          </mxGeometry>
        </mxCell>
        <mxCell id="GWgP33HQFfG0AuJ8wDhh-16" value="" style="endArrow=classic;html=1;rounded=0;exitX=0.5;exitY=1;exitDx=0;exitDy=0;entryX=0.5;entryY=0;entryDx=0;entryDy=0;" edge="1" parent="1" source="GWgP33HQFfG0AuJ8wDhh-3" target="GWgP33HQFfG0AuJ8wDhh-4">
          <mxGeometry width="50" height="50" relative="1" as="geometry">
            <mxPoint x="390" y="270" as="sourcePoint" />
            <mxPoint x="440" y="220" as="targetPoint" />
          </mxGeometry>
        </mxCell>
        <mxCell id="GWgP33HQFfG0AuJ8wDhh-17" value="" style="endArrow=classic;html=1;rounded=0;exitX=0.5;exitY=1;exitDx=0;exitDy=0;" edge="1" parent="1" source="GWgP33HQFfG0AuJ8wDhh-1" target="GWgP33HQFfG0AuJ8wDhh-3">
          <mxGeometry width="50" height="50" relative="1" as="geometry">
            <mxPoint x="390" y="270" as="sourcePoint" />
            <mxPoint x="440" y="220" as="targetPoint" />
          </mxGeometry>
        </mxCell>
      </root>
    </mxGraphModel>
  </diagram>
</mxfile>
